<svg width="110" height="71" viewBox="0 0 110 71" fill="none" xmlns="http://www.w3.org/2000/svg">
<path d="M12.9378 36.396C11.3058 36.396 9.79377 36.228 8.40177 35.892C7.03377 35.556 5.86977 35.088 4.90977 34.488L6.38577 30.348C7.27377 30.852 8.30577 31.272 9.48177 31.608C10.6578 31.92 11.8218 32.076 12.9738 32.076C13.8618 32.076 14.4978 31.956 14.8818 31.716C15.2658 31.452 15.4578 31.116 15.4578 30.708C15.4578 30.348 15.3258 30.084 15.0618 29.916C14.8218 29.724 14.4738 29.58 14.0178 29.484L10.0218 28.836C8.53377 28.596 7.38177 28.056 6.56577 27.216C5.74977 26.376 5.34177 25.284 5.34177 23.94C5.34177 22.692 5.68977 21.624 6.38577 20.736C7.08177 19.824 8.05377 19.128 9.30177 18.648C10.5498 18.144 11.9778 17.892 13.5858 17.892C14.8578 17.892 16.1178 18.048 17.3658 18.36C18.6138 18.648 19.7058 19.128 20.6418 19.8L19.0578 23.868C18.3618 23.388 17.4978 22.992 16.4658 22.68C15.4338 22.344 14.5098 22.176 13.6938 22.176C12.7098 22.176 12.0138 22.32 11.6058 22.608C11.1978 22.872 10.9938 23.196 10.9938 23.58C10.9938 24.228 11.4378 24.624 12.3258 24.768L16.3218 25.452C17.8578 25.692 19.0338 26.22 19.8498 27.036C20.6898 27.828 21.1098 28.908 21.1098 30.276C21.1098 32.22 20.3658 33.732 18.8778 34.812C17.3898 35.868 15.4098 36.396 12.9378 36.396ZM23.7411 42.48V18.288H29.9691V20.7C30.4491 19.836 31.1811 19.152 32.1651 18.648C33.1491 18.144 34.2291 17.892 35.4051 17.892C36.9171 17.892 38.2491 18.264 39.4011 19.008C40.5771 19.752 41.4891 20.82 42.1371 22.212C42.8091 23.58 43.1451 25.224 43.1451 27.144C43.1451 29.04 42.8211 30.684 42.1731 32.076C41.5251 33.468 40.6131 34.536 39.4371 35.28C38.2851 36.024 36.9411 36.396 35.4051 36.396C34.3011 36.396 33.2691 36.168 32.3091 35.712C31.3731 35.256 30.6531 34.644 30.1491 33.876V42.48H23.7411ZM33.3891 31.68C34.3491 31.68 35.1411 31.32 35.7651 30.6C36.3891 29.88 36.7011 28.728 36.7011 27.144C36.7011 25.536 36.3891 24.384 35.7651 23.688C35.1411 22.968 34.3491 22.608 33.3891 22.608C32.4051 22.608 31.6011 22.968 30.9771 23.688C30.3531 24.384 30.0411 25.536 30.0411 27.144C30.0411 28.728 30.3531 29.88 30.9771 30.6C31.6011 31.32 32.4051 31.68 33.3891 31.68ZM52.2214 36.396C50.8534 36.396 49.6414 36.144 48.5854 35.64C47.5534 35.136 46.7374 34.452 46.1374 33.588C45.5614 32.7 45.2734 31.692 45.2734 30.564C45.2734 29.292 45.6094 28.284 46.2814 27.54C46.9534 26.772 48.0334 26.232 49.5214 25.92C51.0094 25.584 52.9894 25.416 55.4614 25.416H56.8294V24.912C56.8294 24.048 56.6014 23.436 56.1454 23.076C55.7134 22.716 54.9574 22.536 53.8774 22.536C52.9654 22.536 51.9574 22.68 50.8534 22.968C49.7494 23.256 48.6694 23.7 47.6134 24.3L45.9934 20.088C46.5934 19.656 47.3614 19.272 48.2974 18.936C49.2334 18.6 50.2174 18.348 51.2494 18.18C52.2814 17.988 53.2534 17.892 54.1654 17.892C57.1174 17.892 59.3014 18.528 60.7174 19.8C62.1574 21.072 62.8774 23.076 62.8774 25.812V36H56.9014V33.48C56.5894 34.392 56.0254 35.112 55.2094 35.64C54.3934 36.144 53.3974 36.396 52.2214 36.396ZM53.6614 32.22C54.5494 32.22 55.2934 31.932 55.8934 31.356C56.5174 30.78 56.8294 30.024 56.8294 29.088V28.44H55.4614C54.0454 28.44 53.0014 28.596 52.3294 28.908C51.6814 29.196 51.3574 29.664 51.3574 30.312C51.3574 30.864 51.5494 31.32 51.9334 31.68C52.3414 32.04 52.9174 32.22 53.6614 32.22ZM75.5623 36.396C73.5703 36.396 71.8303 36.024 70.3423 35.28C68.8783 34.536 67.7383 33.468 66.9223 32.076C66.1063 30.684 65.6983 29.028 65.6983 27.108C65.6983 25.188 66.1063 23.544 66.9223 22.176C67.7383 20.784 68.8783 19.728 70.3423 19.008C71.8303 18.264 73.5703 17.892 75.5623 17.892C76.7383 17.892 77.9023 18.06 79.0543 18.396C80.2303 18.708 81.1903 19.152 81.9343 19.728L80.2423 24.12C79.6903 23.688 79.0423 23.352 78.2983 23.112C77.5783 22.848 76.8943 22.716 76.2463 22.716C74.9743 22.716 73.9903 23.1 73.2943 23.868C72.5983 24.636 72.2503 25.716 72.2503 27.108C72.2503 28.524 72.5983 29.628 73.2943 30.42C73.9903 31.188 74.9743 31.572 76.2463 31.572C76.8943 31.572 77.5783 31.452 78.2983 31.212C79.0423 30.948 79.6903 30.6 80.2423 30.168L81.9343 34.56C81.1903 35.136 80.2303 35.592 79.0543 35.928C77.8783 36.24 76.7143 36.396 75.5623 36.396ZM93.2602 36.396C91.1002 36.396 89.2282 36.024 87.6442 35.28C86.0842 34.512 84.8842 33.432 84.0442 32.04C83.2042 30.648 82.7842 29.004 82.7842 27.108C82.7842 25.308 83.1802 23.712 83.9722 22.32C84.7882 20.928 85.8922 19.848 87.2842 19.08C88.7002 18.288 90.3082 17.892 92.1082 17.892C93.8842 17.892 95.4202 18.264 96.7162 19.008C98.0362 19.752 99.0442 20.82 99.7402 22.212C100.46 23.58 100.82 25.188 100.82 27.036V28.44H88.9042C89.1202 29.592 89.6002 30.42 90.3442 30.924C91.0882 31.428 92.1202 31.68 93.4402 31.68C94.3522 31.68 95.3002 31.548 96.2842 31.284C97.2922 30.996 98.1802 30.588 98.9482 30.06L100.532 34.272C99.6202 34.92 98.5042 35.436 97.1842 35.82C95.8642 36.204 94.5562 36.396 93.2602 36.396ZM92.3962 22.032C91.4362 22.032 90.6442 22.32 90.0202 22.896C89.4202 23.472 89.0362 24.312 88.8682 25.416H95.5642C95.4922 24.288 95.1802 23.448 94.6282 22.896C94.1002 22.32 93.3562 22.032 92.3962 22.032Z" fill="url(#paint0_linear)"/>
<path d="M57.0336 55.264C56.2496 55.264 55.5296 55.096 54.8736 54.76C54.2176 54.408 53.7296 53.952 53.4096 53.392V55H49.2576V38.08H53.5296V44.608C53.8656 44.096 54.3456 43.688 54.9696 43.384C55.6096 43.08 56.2976 42.928 57.0336 42.928C58.0576 42.928 58.9536 43.176 59.7216 43.672C60.5056 44.168 61.1136 44.88 61.5456 45.808C61.9776 46.72 62.1936 47.816 62.1936 49.096C62.1936 50.36 61.9696 51.456 61.5216 52.384C61.0896 53.312 60.4816 54.024 59.6976 54.52C58.9296 55.016 58.0416 55.264 57.0336 55.264ZM55.6896 52.12C56.3296 52.12 56.8576 51.88 57.2736 51.4C57.6896 50.92 57.8976 50.152 57.8976 49.096C57.8976 48.024 57.6896 47.256 57.2736 46.792C56.8576 46.312 56.3296 46.072 55.6896 46.072C55.0336 46.072 54.4976 46.312 54.0816 46.792C53.6656 47.256 53.4576 48.024 53.4576 49.096C53.4576 50.152 53.6656 50.92 54.0816 51.4C54.4976 51.88 55.0336 52.12 55.6896 52.12ZM68.2445 55.264C67.3325 55.264 66.5245 55.096 65.8205 54.76C65.1325 54.424 64.5885 53.968 64.1885 53.392C63.8045 52.8 63.6125 52.128 63.6125 51.376C63.6125 50.528 63.8365 49.856 64.2845 49.36C64.7325 48.848 65.4525 48.488 66.4445 48.28C67.4365 48.056 68.7565 47.944 70.4045 47.944H71.3165V47.608C71.3165 47.032 71.1645 46.624 70.8605 46.384C70.5725 46.144 70.0685 46.024 69.3485 46.024C68.7405 46.024 68.0685 46.12 67.3325 46.312C66.5965 46.504 65.8765 46.8 65.1725 47.2L64.0925 44.392C64.4925 44.104 65.0045 43.848 65.6285 43.624C66.2525 43.4 66.9085 43.232 67.5965 43.12C68.2845 42.992 68.9325 42.928 69.5405 42.928C71.5085 42.928 72.9645 43.352 73.9085 44.2C74.8685 45.048 75.3485 46.384 75.3485 48.208V55H71.3645V53.32C71.1565 53.928 70.7805 54.408 70.2365 54.76C69.6925 55.096 69.0285 55.264 68.2445 55.264ZM69.2045 52.48C69.7965 52.48 70.2925 52.288 70.6925 51.904C71.1085 51.52 71.3165 51.016 71.3165 50.392V49.96H70.4045C69.4605 49.96 68.7645 50.064 68.3165 50.272C67.8845 50.464 67.6685 50.776 67.6685 51.208C67.6685 51.576 67.7965 51.88 68.0525 52.12C68.3245 52.36 68.7085 52.48 69.2045 52.48ZM77.7811 55V43.192H81.9331V44.8C82.3491 44.192 82.8851 43.728 83.5411 43.408C84.1971 43.088 84.9331 42.928 85.7491 42.928C87.1571 42.928 88.1971 43.344 88.8691 44.176C89.5571 45.008 89.9011 46.288 89.9011 48.016V55H85.6291V48.184C85.6291 47.464 85.5011 46.952 85.2451 46.648C85.0051 46.344 84.6451 46.192 84.1651 46.192C83.5251 46.192 83.0131 46.4 82.6291 46.816C82.2451 47.216 82.0531 47.76 82.0531 48.448V55H77.7811ZM92.3358 55V38.08H96.6078V47.944H96.6558L100.544 43.192H105.56L100.88 48.808L105.728 55H100.616L96.6558 50.08H96.6078V55H92.3358Z" fill="black"/>
<path d="M47.9484 48.0254C47.9544 47.7196 47.8233 47.4265 47.5862 47.2127C47.4341 47.0764 43.7997 43.8729 38.5359 43.7699L32.4135 43.6501C31.5744 43.1969 29.0605 41.928 26.8614 41.7165C24.3829 41.4783 21.4009 41.7461 21.2752 41.7576C20.7081 41.8095 20.2686 42.2319 20.2218 42.7546C19.0876 42.2858 17.556 41.7915 16.0914 41.7628C13.5062 41.7123 10.7343 42.2894 10.6175 42.314C10.1098 42.421 9.73888 42.8264 9.70543 43.3106C9.70152 43.3688 9.7025 43.4264 9.70816 43.4831C8.47116 43.6743 7.11816 43.9232 6.01373 44.2081C3.84469 44.7677 1.20993 46.0998 1.09884 46.1563C0.728464 46.3443 0.49514 46.7034 0.487549 47.0968C0.481668 47.3915 0.603257 47.6719 0.817063 47.8791C0.888622 47.9484 0.970549 48.0097 1.06167 48.0605C1.17047 48.1213 3.75119 49.5553 5.89667 50.1994C6.989 50.5274 8.33111 50.829 9.5599 51.0684C9.55203 51.1248 9.54879 51.1823 9.55043 51.2406C9.56501 51.7259 9.9196 52.1454 10.4228 52.2721C10.5385 52.3013 13.2856 52.9865 15.8708 53.0371C17.3356 53.0658 18.8855 52.6315 20.0373 52.2075C20.051 52.4806 20.1712 52.7309 20.3644 52.9182C20.5419 53.0902 20.7802 53.2095 21.0506 53.245C21.1758 53.2614 24.1449 53.6456 26.6309 53.5046C28.8367 53.3794 31.3981 52.2098 32.2543 51.7898L38.3767 51.9096C43.6404 52.0126 47.3974 48.9537 47.5548 48.8235C47.7996 48.6206 47.9424 48.3312 47.9484 48.0254ZM15.9136 50.8438C15.3436 50.8326 14.7566 50.7848 14.1961 50.7191C14.2187 50.6068 14.2228 50.4895 14.206 50.3711C14.1314 49.8474 13.6651 49.4465 13.0995 49.4171C12.5995 49.3912 8.95752 48.8155 6.61277 48.1114C5.84329 47.8804 4.98193 47.5184 4.23051 47.1698C4.99421 46.8514 5.86841 46.5235 6.64779 46.3225C9.0184 45.7108 12.6799 45.278 13.1804 45.2717C13.7477 45.2663 14.2292 44.8845 14.3253 44.3636C14.3471 44.2451 14.3477 44.1272 14.3292 44.0133C14.8914 43.9697 15.4792 43.9448 16.0486 43.9561C17.5568 43.9856 19.2927 44.7344 20.1711 45.1654L20.0804 49.7995C19.0765 50.2436 17.333 50.8716 15.9136 50.8438ZM29.9086 49.4325C29.4046 49.4225 28.9341 49.2303 28.5839 48.8909C28.2339 48.5516 28.0463 48.106 28.0554 47.6361C28.0644 47.1663 28.2695 46.7283 28.6326 46.4028C28.9958 46.0774 29.4735 45.9038 29.9776 45.9136C30.4817 45.9235 30.9523 46.1158 31.3023 46.4551C31.6524 46.7944 31.8401 47.2401 31.8309 47.7099C31.8217 48.1798 31.6167 48.6178 31.2536 48.9432C30.8906 49.2685 30.4128 49.4424 29.9086 49.4325ZM38.7151 49.6733L36.8001 49.6358C36.2762 49.6255 35.7874 49.4258 35.4238 49.0733C35.0601 48.7208 34.8651 48.2578 34.8746 47.7696C34.8943 46.7617 35.7902 45.959 36.8715 45.9803L38.7866 46.0177C39.3104 46.028 39.7992 46.2278 40.1629 46.5802C40.5266 46.9327 40.7216 47.3957 40.712 47.8839C40.7025 48.3722 40.4895 48.8271 40.1124 49.165C39.7352 49.503 39.239 49.6835 38.7151 49.6733Z" fill="#141414"/>
<defs>
<linearGradient id="paint0_linear" x1="57" y1="16.5" x2="56.5098" y2="49" gradientUnits="userSpaceOnUse">
<stop stop-color="#6C63FF"/>
<stop offset="1" stop-color="#DD114E"/>
</linearGradient>
</defs>
</svg>
